<svg xmlns="http://www.w3.org/2000/svg" xmlns:xlink="http://www.w3.org/1999/xlink" display="none">	
  <symbol viewBox="0 0 24 24" id="store" xmlns="http://www.w3.org/2000/svg"><path d="M0 0h24v24H0z" fill="none"/><path d="M20 4H4v2h16V4zm1 10v-2l-1-5H4l-1 5v2h1v6h10v-6h4v6h2v-6h1zm-9 4H6v-4h6v4z"/></symbol>
  <symbol viewBox="0 0 24 24" id="pinmarker" xmlns="http://www.w3.org/2000/svg"><path d="M12 2C8.13 2 5 5.13 5 9c0 5.25 7 13 7 13s7-7.75 7-13c0-3.87-3.13-7-7-7zm0z"/><path d="M0 0h24v24H0z" fill="none"/></symbol>
	<symbol viewBox="0 0 24 24" id="place" xmlns="http://www.w3.org/2000/svg"><path d="M12 2C8.13 2 5 5.13 5 9c0 5.25 7 13 7 13s7-7.75 7-13c0-3.87-3.13-7-7-7zm0 9.5c-1.38 0-2.5-1.12-2.5-2.5s1.12-2.5 2.5-2.5 2.5 1.12 2.5 2.5-1.12 2.5-2.5 2.5z"/><path d="M0 0h24v24H0z" fill="none"/></symbol>
	<symbol viewBox="0 0 24 24" id="whatshot" xmlns="http://www.w3.org/2000/svg"><path d="M13.5.67s.74 2.65.74 4.8c0 2.06-1.35 3.73-3.41 3.73-2.07 0-3.63-1.67-3.63-3.73l.03-.36C5.21 7.51 4 10.62 4 14c0 4.42 3.58 8 8 8s8-3.58 8-8C20 8.61 17.41 3.8 13.5.67zM11.71 19c-1.78 0-3.22-1.4-3.22-3.14 0-1.62 1.05-2.76 2.81-3.12 1.77-.36 3.6-1.21 4.62-2.58.39 1.29.59 2.65.59 4.04 0 2.65-2.15 4.8-4.8 4.8z"/><path d="M0 0h24v24H0z" fill="none"/> </symbol>
	<symbol viewBox="0 0 24 24" id="my_location" xmlns="http://www.w3.org/2000/svg"><path d="M0 0h24v24H0z" fill="none"/><path d="M12 8c-2.21 0-4 1.79-4 4s1.79 4 4 4 4-1.79 4-4-1.79-4-4-4zm8.94 3c-.46-4.17-3.77-7.48-7.94-7.94V1h-2v2.06C6.83 3.52 3.52 6.83 3.06 11H1v2h2.06c.46 4.17 3.77 7.48 7.94 7.94V23h2v-2.06c4.17-.46 7.48-3.77 7.94-7.94H23v-2h-2.06zM12 19c-3.87 0-7-3.13-7-7s3.13-7 7-7 7 3.13 7 7-3.13 7-7 7z"/></symbol>
	<symbol id="draw-polygon" xmlns="http://www.w3.org/2000/svg" viewBox="0 0 448 512"><path d="M384 352c-.35 0-.67.1-1.02.1l-39.2-65.32c5.07-9.17 8.22-19.56 8.22-30.78s-3.14-21.61-8.22-30.78l39.2-65.32c.35.01.67.1 1.02.1 35.35 0 64-28.65 64-64s-28.65-64-64-64c-23.63 0-44.04 12.95-55.12 32H119.12C108.04 44.95 87.63 32 64 32 28.65 32 0 60.65 0 96c0 23.63 12.95 44.04 32 55.12v209.75C12.95 371.96 0 392.37 0 416c0 35.35 28.65 64 64 64 23.63 0 44.04-12.95 55.12-32h209.75c11.09 19.05 31.49 32 55.12 32 35.35 0 64-28.65 64-64 .01-35.35-28.64-64-63.99-64zm-288 8.88V151.12A63.825 63.825 0 0 0 119.12 128h208.36l-38.46 64.1c-.35-.01-.67-.1-1.02-.1-35.35 0-64 28.65-64 64s28.65 64 64 64c.35 0 .67-.1 1.02-.1l38.46 64.1H119.12A63.748 63.748 0 0 0 96 360.88zM272 256c0-8.82 7.18-16 16-16s16 7.18 16 16-7.18 16-16 16-16-7.18-16-16zM400 96c0 8.82-7.18 16-16 16s-16-7.18-16-16 7.18-16 16-16 16 7.18 16 16zM64 80c8.82 0 16 7.18 16 16s-7.18 16-16 16-16-7.18-16-16 7.18-16 16-16zM48 416c0-8.82 7.18-16 16-16s16 7.18 16 16-7.18 16-16 16-16-7.18-16-16zm336 16c-8.82 0-16-7.18-16-16s7.18-16 16-16 16 7.18 16 16-7.18 16-16 16z"/></symbol>
	<symbol viewBox="0 0 24 24" id="dashboard" xmlns="http://www.w3.org/2000/svg"><path d="M0 0h24v24H0z" fill="none"/><path d="M3 13h8V3H3v10zm0 8h8v-6H3v6zm10 0h8V11h-8v10zm0-18v6h8V3h-8z"/></symbol>
	<symbol viewBox="0 0 24 24" id="bar_chart" xmlns="http://www.w3.org/2000/svg"><path d="M5 9.2h3V19H5zM10.6 5h2.8v14h-2.8zm5.6 8H19v6h-2.8z"/><path fill="none" d="M0 0h24v24H0z"/></symbol>
	<symbol viewBox="0 0 24 24" id="euro_symbol" xmlns="http://www.w3.org/2000/svg"><path d="M15 18.5c-2.51 0-4.68-1.42-5.76-3.5H15v-2H8.58c-.05-.33-.08-.66-.08-1s.03-.67.08-1H15V9H9.24C10.32 6.92 12.5 5.5 15 5.5c1.61 0 3.09.59 4.23 1.57L21 5.3C19.41 3.87 17.3 3 15 3c-3.92 0-7.24 2.51-8.48 6H3v2h3.06c-.04.33-.06.66-.06 1 0 .34.02.67.06 1H3v2h3.52c1.24 3.49 4.56 6 8.48 6 2.31 0 4.41-.87 6-2.3l-1.78-1.77c-1.13.98-2.6 1.57-4.22 1.57z"/><path fill="none" d="M0 0h24v24H0z"/></symbol>
	<symbol viewBox="0 0 24 24" id="store_mall" xmlns="http://www.w3.org/2000/svg"><path d="M0 0h24v24H0z" fill="none"/><path d="M20 4H4v2h16V4zm1 10v-2l-1-5H4l-1 5v2h1v6h10v-6h4v6h2v-6h1zm-9 4H6v-4h6v4z"/></symbol>

	<symbol viewBox="0 0 24 24" id="place_address" xmlns="http://www.w3.org/2000/svg"><path d="M12 2C8.13 2 5 5.13 5 9c0 5.25 7 13 7 13s7-7.75 7-13c0-3.87-3.13-7-7-7zm0 9.5c-1.38 0-2.5-1.12-2.5-2.5s1.12-2.5 2.5-2.5 2.5 1.12 2.5 2.5-1.12 2.5-2.5 2.5z"/><path d="M0 0h24v24H0z" fill="none"/></symbol>
	<symbol viewBox="0 0 24 24" id="phone" xmlns="http://www.w3.org/2000/svg"><path d="M0 0h24v24H0z" fill="none"/><path d="M6.62 10.79c1.44 2.83 3.76 5.14 6.59 6.59l2.2-2.2c.27-.27.67-.36 1.02-.24 1.12.37 2.33.57 3.57.57.55 0 1 .45 1 1V20c0 .55-.45 1-1 1-9.39 0-17-7.61-17-17 0-.55.45-1 1-1h3.5c.55 0 1 .45 1 1 0 1.25.2 2.45.57 3.57.11.35.03.74-.25 1.02l-2.2 2.2z"/></symbol>
	<symbol viewBox="0 0 24 24" id="gas_station" xmlns="http://www.w3.org/2000/svg"><path d="M0 0h24v24H0z" fill="none"/><path d="M19.77 7.23l.01-.01-3.72-3.72L15 4.56l2.11 2.11c-.94.36-1.61 1.26-1.61 2.33 0 1.38 1.12 2.5 2.5 2.5.36 0 .69-.08 1-.21v7.21c0 .55-.45 1-1 1s-1-.45-1-1V14c0-1.1-.9-2-2-2h-1V5c0-1.1-.9-2-2-2H6c-1.1 0-2 .9-2 2v16h10v-7.5h1.5v5c0 1.38 1.12 2.5 2.5 2.5s2.5-1.12 2.5-2.5V9c0-.69-.28-1.32-.73-1.77zM12 10H6V5h6v5zm6 0c-.55 0-1-.45-1-1s.45-1 1-1 1 .45 1 1-.45 1-1 1z"/></symbol>
	<symbol viewBox="0 0 24 24" id="parking" xmlns="http://www.w3.org/2000/svg"><path d="M0 0h24v24H0z" fill="none"/><path d="M13 3H6v18h4v-6h3c3.31 0 6-2.69 6-6s-2.69-6-6-6zm.2 8H10V7h3.2c1.1 0 2 .9 2 2s-.9 2-2 2z"/></symbol>
	<symbol viewBox="0 0 24 24" id="zone_out_map" xmlns="http://www.w3.org/2000/svg"><defs><path id="a" d="M0 0h24v24H0z"/></defs><clipPath id="b"><use xlink:href="#a" overflow="visible"/></clipPath><path clip-path="url(#b)" d="M15 3l2.3 2.3-2.89 2.87 1.42 1.42L18.7 6.7 21 9V3zM3 9l2.3-2.3 2.87 2.89 1.42-1.42L6.7 5.3 9 3H3zm6 12l-2.3-2.3 2.89-2.87-1.42-1.42L5.3 17.3 3 15v6zm12-6l-2.3 2.3-2.87-2.89-1.42 1.42 2.89 2.87L15 21h6z"/><path clip-path="url(#b)" fill="none" d="M0 0h24v24H0z"/></symbol>
	<symbol viewBox="0 0 24 24" id="open_in_new" xmlns="http://www.w3.org/2000/svg"><path d="M0 0h24v24H0z" fill="none"/><path d="M19 19H5V5h7V3H5c-1.11 0-2 .9-2 2v14c0 1.1.89 2 2 2h14c1.1 0 2-.9 2-2v-7h-2v7zM14 3v2h3.59l-9.83 9.83 1.41 1.41L19 6.41V10h2V3h-7z"/></symbol>

	<symbol viewBox="0 0 24 24" id="directions_walk" xmlns="http://www.w3.org/2000/svg"><path fill="none" d="M0 0h24v24H0z"/><path d="M13.5 5.5c1.1 0 2-.9 2-2s-.9-2-2-2-2 .9-2 2 .9 2 2 2zM9.8 8.9L7 23h2.1l1.8-8 2.1 2v6h2v-7.5l-2.1-2 .6-3C14.8 12 16.8 13 19 13v-2c-1.9 0-3.5-1-4.3-2.4l-1-1.6c-.4-.6-1-1-1.7-1-.3 0-.5.1-.8.1L6 8.3V13h2V9.6l1.8-.7"/></symbol>
	<symbol viewBox="0 0 24 24" id="directions_car"  xmlns="http://www.w3.org/2000/svg"><path d="M18.92 6.01C18.72 5.42 18.16 5 17.5 5h-11c-.66 0-1.21.42-1.42 1.01L3 12v8c0 .55.45 1 1 1h1c.55 0 1-.45 1-1v-1h12v1c0 .55.45 1 1 1h1c.55 0 1-.45 1-1v-8l-2.08-5.99zM6.5 16c-.83 0-1.5-.67-1.5-1.5S5.67 13 6.5 13s1.5.67 1.5 1.5S7.33 16 6.5 16zm11 0c-.83 0-1.5-.67-1.5-1.5s.67-1.5 1.5-1.5 1.5.67 1.5 1.5-.67 1.5-1.5 1.5zM5 11l1.5-4.5h11L19 11H5z"/><path d="M0 0h24v24H0z" fill="none"/></symbol>
</svg>